<?xml version="1.0" encoding="UTF-8"?>
<svg version="1.1" xmlns="http://www.w3.org/2000/svg" width="2000" height="2000">
<path d="M0 0 C660 0 1320 0 2000 0 C2000 660 2000 1320 2000 2000 C1340 2000 680 2000 0 2000 C0 1340 0 680 0 0 Z " fill="#000000" transform="translate(0,0)"/>
<path d="M0 0 C154.11 0 308.22 0 467 0 C467 61.38 467 122.76 467 186 C437.96 186 408.92 186 379 186 C379 351.99 379 517.98 379 689 C408.04 689 437.08 689 467 689 C467 750.71 467 812.42 467 876 C312.89 876 158.78 876 0 876 C0 814.29 0 752.58 0 689 C29.04 689 58.08 689 88 689 C88 523.01 88 357.02 88 186 C58.96 186 29.92 186 0 186 C0 124.62 0 63.24 0 0 Z " fill="#FEFEFE" transform="translate(265,561)"/>
<path d="M0 0 C96.03 0 192.06 0 291 0 C291 288.75 291 577.5 291 875 C194.97 875 98.94 875 0 875 C0 586.25 0 297.5 0 0 Z " fill="#FFFFFF" transform="translate(874,561)"/>
<path d="M0 0 C3.72308683 0.06941988 7.44575889 0.04569191 11.16931129 0.03356361 C17.61233839 0.0251931 24.05276357 0.07517423 30.49513602 0.16536903 C39.80912571 0.29568195 49.12186362 0.33709873 58.43666606 0.3571769 C73.55031716 0.3921529 88.66258272 0.49851247 103.77548194 0.65001869 C118.45184394 0.7969952 133.12782896 0.91019327 147.80477881 0.97814369 C149.16290795 0.98444906 149.16290795 0.98444906 150.54847403 0.9908818 C155.09092298 1.01176315 159.63337459 1.0319823 164.17582798 1.05187225 C201.83095504 1.21760808 239.48450688 1.4992992 277.13827491 1.85704994 C276.35884008 3.28225831 275.57663929 4.70595419 274.7933042 6.1290226 C274.35801902 6.92200752 273.92273383 7.71499245 273.47425818 8.53200722 C271.51978406 11.93342394 269.26173441 15.06703143 266.95077491 18.23204994 C261.75010168 25.48283888 256.75687232 32.85840436 251.82577491 40.29454994 C244.95907067 50.64126462 238.04017258 60.95082264 231.07577491 71.23204994 C230.59675727 71.93933235 230.11773963 72.64661476 229.6242063 73.37532997 C227.64904709 76.29163733 225.67375707 79.20785595 223.69813514 82.12384987 C218.53005497 89.75260716 213.37182149 97.38800622 208.21423316 105.02385902 C199.22204786 118.33670221 190.22408846 131.64562529 181.22128272 144.95128822 C173.689185 156.0835524 166.16239975 167.21939567 158.63827491 178.35704994 C150.17050103 190.89154927 141.69814864 203.42293608 133.22128272 215.95128822 C125.689185 227.0835524 118.16239975 238.21939567 110.63827491 249.35704994 C102.64232552 261.19312678 94.64277807 273.02675615 86.63827491 284.85704994 C78.67594967 296.62518787 70.71769879 308.39606973 62.76327491 320.16954994 C62.24476966 320.93699532 61.72626441 321.70444069 61.19204688 322.49514198 C57.50732083 327.94901984 53.82277709 333.40302085 50.13827491 338.85704994 C45.93006674 345.08630118 41.72177793 351.31549791 37.51327491 357.54454994 C36.99460853 358.31223701 36.47594214 359.07992409 35.9415586 359.8708744 C28.03884706 371.5674841 20.13122506 383.26076317 12.2207334 394.9521122 C4.68881735 406.08410075 -2.83778502 417.21966919 -10.36172509 428.35704994 C-18.82949897 440.89154927 -27.30185136 453.42293608 -35.77871728 465.95128822 C-43.310815 477.0835524 -50.83760025 488.21939567 -58.36172509 499.35704994 C-66.82949897 511.89154927 -75.30185136 524.42293608 -83.77871728 536.95128822 C-91.310815 548.0835524 -98.83760025 559.21939567 -106.36172509 570.35704994 C-114.82949897 582.89154927 -123.30185136 595.42293608 -131.77871728 607.95128822 C-139.310815 619.0835524 -146.83760025 630.21939567 -154.36172509 641.35704994 C-162.82678864 653.88753729 -171.2960118 666.41519657 -179.77066064 678.93920326 C-185.84212157 687.91177712 -191.90929987 696.88722372 -197.97171044 705.8659153 C-202.66929451 712.82297989 -207.37014865 719.77782858 -212.07266259 726.73156166 C-213.84999628 729.35992364 -215.62611352 731.98909854 -217.40078759 734.61925697 C-219.55064815 737.80525657 -221.70570444 740.98771511 -223.86172509 744.16954994 C-224.47274072 745.07672768 -225.08375634 745.98390541 -225.71328759 746.91857338 C-226.25727197 747.71940346 -226.80125634 748.52023354 -227.36172509 749.34533119 C-227.82578759 750.03151527 -228.28985009 750.71769936 -228.76797509 751.4246769 C-229.12891259 751.89736 -229.48985009 752.37004311 -229.86172509 752.85704994 C-230.19172509 752.85704994 -230.52172509 752.85704994 -230.86172509 752.85704994 C-231.18254877 698.96187033 -231.42905227 645.06678766 -231.5766397 591.17084005 C-231.59414846 584.8001285 -231.61226908 578.42941884 -231.63076806 572.0587101 C-231.63444041 570.79047903 -231.63811275 569.52224797 -231.64189638 568.21558566 C-231.70272517 547.7118664 -231.81305882 527.2086997 -231.94186424 506.70530765 C-232.07303716 485.64858483 -232.15060083 464.59215033 -232.17896402 443.53503573 C-232.19812238 430.55352752 -232.25850752 417.57358144 -232.37255563 404.59255441 C-232.44687135 395.67678124 -232.4688571 386.76180918 -232.45074438 377.84574918 C-232.44182395 372.70992849 -232.45495997 367.57682622 -232.53060174 362.4414959 C-233.07410019 323.65781896 -233.07410019 323.65781896 -218.49064493 306.79376531 C-216.20158546 304.07217242 -214.44909964 301.18192888 -212.63516259 298.12658119 C-212.06539697 297.21263588 -211.49563134 296.29869057 -210.90860009 295.35704994 C-210.35688134 294.47017494 -209.80516259 293.58329994 -209.23672509 292.66954994 C-204.79880884 285.55231081 -200.34785615 278.44400129 -195.86172509 271.35704994 C-188.81436117 260.22000559 -181.84017685 249.03735314 -174.86172509 237.85704994 C-167.40727173 225.91413602 -159.94874538 213.97448017 -152.41958642 202.07848549 C-148.37693713 195.68588198 -144.36679397 189.27325119 -140.36172509 182.85704994 C-135.40490269 174.91612031 -130.42667758 166.98948165 -125.42031884 159.07970619 C-121.37749394 152.68665242 -117.36704529 146.27365382 -113.36172509 139.85704994 C-108.40490269 131.91612031 -103.42667758 123.98948165 -98.42031884 116.07970619 C-94.37749394 109.68665242 -90.36704529 103.27365382 -86.36172509 96.85704994 C-81.88065388 89.67828334 -77.387497 82.50772359 -72.86172509 75.35704994 C-66.46913106 65.25457416 -60.13761338 55.11418842 -53.80703759 44.9727726 C-50.55637093 39.7663208 -47.30264918 34.56177894 -44.04922509 29.35704994 C-42.89686679 27.51330904 -41.74452289 25.66955913 -40.59219384 23.82579994 C-40.01169967 22.9545649 -39.43120549 22.08332985 -38.83312058 21.18569374 C-37.32205507 18.63430368 -36.33452155 16.56639316 -35.33091187 13.83802223 C-28.69976242 -2.20400839 -15.33719805 -0.35878402 0 0 Z " fill="#FEFEFE" transform="translate(1440.8617250919342,559.1429500579834)"/>
<path d="M0 0 C4.1878213 3.56676131 6.22183338 7.85815223 8.6328125 12.69140625 C9.06955292 13.5507225 9.50629333 14.41003876 9.95626831 15.2953949 C11.35319914 18.04744465 12.73945811 20.80470159 14.125 23.5625 C15.93753647 27.14843716 17.75408094 30.73233954 19.5703125 34.31640625 C20.24589203 35.65241379 20.24589203 35.65241379 20.93511963 37.01541138 C25.16203504 45.35972141 29.51997443 53.63224266 33.89300537 61.90060425 C36.62630839 67.08426512 39.30955004 72.29401114 42 77.5 C45.97518738 85.17992465 49.96124926 92.8532986 54 100.5 C58.65854858 109.32018531 63.24461906 118.17741406 67.83032227 127.03564453 C71.17606945 133.49461243 74.53878387 139.94375938 77.9375 146.375 C82.50848896 155.02613346 86.99850805 163.71863225 91.48748779 172.41247559 C95.6984613 180.56661085 99.93467294 188.70635082 104.22265625 196.8203125 C107.8509639 203.69500068 111.4263554 210.59676923 115 217.5 C118.97572836 225.17964835 122.96132085 232.85325473 127 240.5 C131.60654191 249.22355509 136.1462924 257.98122891 140.68310547 266.74121094 C145.94575734 276.90131032 151.23475863 287.04747377 156.53222656 297.18945312 C159.0229862 301.95885182 161.51135762 306.7294963 164 311.5 C164.99998888 313.41667247 165.99998887 315.33333914 167 317.25 C173 328.75 179 340.25 185 351.75 C185.49483887 352.69842773 185.98967773 353.64685547 186.49951172 354.62402344 C187.50118381 356.5439221 188.50281129 358.46384404 189.50439453 360.38378906 C191.97844944 365.12619636 194.45323573 369.86821884 196.9296875 374.609375 C202.34566814 384.98055495 207.74421118 395.36051365 213.125 405.75 C217.10245538 413.42866861 221.0910716 421.10083601 225.125 428.75 C225.50978516 429.48049561 225.89457031 430.21099121 226.29101562 430.96362305 C228.05515077 434.3123348 229.82042283 437.66042486 231.58984375 441.00634766 C233.27209622 444.18970937 234.94890248 447.37589412 236.625 450.5625 C237.15883301 451.56958008 237.69266602 452.57666016 238.24267578 453.61425781 C238.7323584 454.5472168 239.22204102 455.48017578 239.7265625 456.44140625 C240.16564941 457.27357666 240.60473633 458.10574707 241.05712891 458.96313477 C242 461 242 461 242 463 C138.05 463 34.1 463 -73 463 C-75.64 457.72 -78.28 452.44 -81 447 C-82.14082031 444.72996094 -83.28164062 442.45992187 -84.45703125 440.12109375 C-90.2095582 428.67094649 -95.90593592 417.20209386 -101.40039062 405.62524414 C-106.13279113 395.67353245 -110.97478194 385.77582866 -115.8125 375.875 C-122.13986356 362.92311983 -128.44536355 349.96168403 -134.70019531 336.97460938 C-138.80428047 328.46012834 -142.93705231 319.95995636 -147.08105469 311.46484375 C-148.7227693 308.09912711 -150.36135944 304.73191962 -151.99707031 301.36328125 C-155.3568024 294.44768063 -158.71716244 287.53414467 -162.17579651 280.66732788 C-163.14019358 278.75047069 -164.09756343 276.83028108 -165.05249023 274.90869141 C-166.1937799 272.61724647 -167.3487563 270.3325478 -168.51977539 268.05615234 C-169.01469482 267.05535645 -169.50961426 266.05456055 -170.01953125 265.0234375 C-170.45370361 264.16669434 -170.88787598 263.30995117 -171.33520508 262.42724609 C-172.24620793 259.10106529 -171.63895038 258.03925041 -170 255 C-168.2347035 252.08183656 -166.36854376 249.2383703 -164.48046875 246.3984375 C-163.63812431 245.12046799 -163.63812431 245.12046799 -162.77876282 243.81668091 C-160.91972872 240.99963612 -159.0538116 238.1872277 -157.1875 235.375 C-155.87483345 233.39008409 -154.5623361 231.40505627 -153.25 229.41992188 C-143.81590449 215.16729289 -134.275589 200.98755888 -124.69491577 186.83319092 C-115.52799308 173.28807103 -106.47727344 159.67147811 -97.5 146 C-87.34302871 130.53196155 -77.06567605 115.15193427 -66.69152832 99.82879639 C-56.82765659 85.25412495 -47.10751566 70.58997128 -37.44717407 55.87976074 C-25.1352733 37.13720377 -12.60906306 18.54362807 0 0 Z " fill="#FEFEFE" transform="translate(1490,974)"/>
</svg>
